<svg width="64" height="32" viewBox="0 0 64 32" fill="none" xmlns="http://www.w3.org/2000/svg">
<rect width="64" height="32" rx="10" fill="#0266FF"/>
<path d="M28.5112 23C28.1313 23 27.8074 22.8673 27.5395 22.6018C27.2717 22.3363 27.1377 22.0171 27.1377 21.6443C27.1377 21.2715 27.273 20.9537 27.5436 20.6909C27.8141 20.428 28.1394 20.2966 28.5193 20.2966C28.8993 20.2966 29.2232 20.4294 29.491 20.6948C29.7589 20.9603 29.8928 21.2795 29.8928 21.6523C29.8928 22.0251 29.7575 22.3429 29.487 22.6058C29.2164 22.8686 28.8912 23 28.5112 23ZM36.1642 23C35.7843 23 35.4604 22.8673 35.1925 22.6018C34.9247 22.3363 34.7908 22.0171 34.7908 21.6443C34.7908 21.2715 34.926 20.9537 35.1966 20.6909C35.4672 20.428 35.7924 20.2966 36.1723 20.2966C36.5523 20.2966 36.8762 20.4294 37.1441 20.6948C37.4119 20.9603 37.5458 21.2795 37.5458 21.6523C37.5458 22.0251 37.4106 22.3429 37.14 22.6058C36.8694 22.8686 36.5442 23 36.1642 23ZM27.5204 10.6095L29.625 14.8899H35.1351L37.5267 10.6095H27.5204ZM26.9464 9.4831H38.2169C38.5098 9.4831 38.7327 9.61452 38.8855 9.87735C39.0383 10.1402 39.0382 10.403 38.8851 10.6658L36.3022 15.2278C36.1619 15.4656 35.9798 15.6564 35.7558 15.8004C35.5318 15.9443 35.2867 16.0163 35.0203 16.0163H29.2232L28.1518 17.9687H37.5458V19.0951H28.324C27.7882 19.0951 27.4024 18.9199 27.1664 18.5695C26.9305 18.219 26.9337 17.8248 27.176 17.3867L28.4005 15.1715L25.4923 9.12641H24V8H26.2385L26.9464 9.4831Z" fill="white"/>
</svg>
