<svg width="24" height="24" viewBox="0 0 24 24" fill="none" xmlns="http://www.w3.org/2000/svg">
<g id="icon / 24px / shoping cart / empty">
<path id="Vector" d="M7.16972 21.975C6.67326 21.975 6.25002 21.7982 5.90002 21.4447C5.55002 21.0912 5.37502 20.6661 5.37502 20.1697C5.37502 19.6732 5.55179 19.25 5.90532 18.9C6.25887 18.55 6.68387 18.375 7.18032 18.375C7.67679 18.375 8.10002 18.5518 8.45002 18.9053C8.80002 19.2589 8.97502 19.6839 8.97502 20.1803C8.97502 20.6768 8.79826 21.1 8.44472 21.45C8.09117 21.8 7.66617 21.975 7.16972 21.975ZM17.1697 21.975C16.6733 21.975 16.25 21.7982 15.9 21.4447C15.55 21.0912 15.375 20.6661 15.375 20.1697C15.375 19.6732 15.5518 19.25 15.9053 18.9C16.2589 18.55 16.6839 18.375 17.1803 18.375C17.6768 18.375 18.1 18.5518 18.45 18.9053C18.8 19.2589 18.975 19.6839 18.975 20.1803C18.975 20.6768 18.7983 21.1 18.4447 21.45C18.0912 21.8 17.6662 21.975 17.1697 21.975ZM5.87502 5.475L8.62502 11.175H15.825L18.95 5.475H5.87502ZM5.12502 3.975H19.8519C20.2346 3.975 20.5258 4.15 20.7255 4.5C20.9252 4.85 20.925 5.2 20.725 5.55L17.35 11.625C17.1667 11.9417 16.9287 12.1958 16.636 12.3875C16.3434 12.5792 16.023 12.675 15.675 12.675H8.10002L6.70002 15.275H18.975V16.775H6.92502C6.22502 16.775 5.72086 16.5417 5.41252 16.075C5.10419 15.6083 5.10836 15.0833 5.42502 14.5L7.02502 11.55L3.22502 3.5H1.27502V2H4.20002L5.12502 3.975Z" fill="#9D9DB5"/>
</g>
</svg>
